<svg width="239" height="286" viewBox="0 0 239 286" fill="none" xmlns="http://www.w3.org/2000/svg">
<path fill-rule="evenodd" clip-rule="evenodd" d="M33.5 18.8004C33.5 8.41723 41.9172 0 52.3004 0C53.2952 0 54.2884 0.0789557 55.2707 0.236121L68.0293 2.2775C77.0356 3.71851 85.6355 7.04745 93.2648 12.0459C96.9782 14.4789 100.449 17.3073 103.58 20.4381C108.993 25.8513 113.508 32.2363 116.73 39.2944C117.574 37.4425 118.492 35.6223 119.483 33.8385C122.745 27.9679 126.761 22.5493 131.428 17.7208L139.81 9.04978L154.19 22.9502L145.808 31.6212C142.353 35.1952 139.381 39.206 136.967 43.5513C133.745 49.3511 131.56 55.6691 130.512 62.2205L129.644 67.6435L131.14 67.2407C139.13 65.0896 147.369 64 155.643 64H160.225C169.285 64 178.26 65.7426 186.662 69.1328C199.996 74.5133 211.371 83.8344 219.268 95.851L222.55 100.846C229.436 111.323 234.163 123.212 235.987 135.816C236.655 140.43 237.273 145.015 237.664 148.615C237.858 150.395 238.012 152.081 238.079 153.465C238.112 154.139 238.134 154.929 238.102 155.708C238.086 156.093 238.051 156.642 237.955 157.262C237.906 157.575 237.785 158.328 237.456 159.261C237.422 159.425 237.374 159.665 237.314 159.993C237.133 160.975 236.908 162.372 236.65 164.108C236.138 167.558 235.543 172.025 234.975 176.506C233.803 185.73 231.564 194.846 228.15 203.603L224.435 213.135C222.153 218.989 219.373 224.636 216.127 230.015L202.728 252.22L189.054 269.409C185.411 273.99 180.862 277.772 175.693 280.518C167.229 285.014 157.498 286.527 148.069 284.813L142.57 283.813L119.386 278.909C118.102 278.637 116.792 278.5 115.479 278.5C113.968 278.5 112.463 278.681 110.995 279.04L103.125 280.964C94.8742 282.981 86.4104 284 77.9174 284H71.5C69.2049 284 67.4485 283.212 67.0029 283.012L66.9783 283.001C66.2519 282.675 65.6264 282.314 65.1852 282.044C64.2814 281.491 63.3462 280.824 62.5017 280.192C60.7719 278.897 58.7031 277.205 56.6437 275.466C48.5286 268.611 41.9367 260.411 36.5898 251.711L20.6043 225.7C16.1287 218.418 12.5171 210.639 9.84276 202.52L6.31598 191.814C1.369 176.796 -0.207852 160.959 1.32682 145.36C1.73505 141.211 2.08518 137.416 2.30632 134.58C2.41775 133.151 2.48993 132.048 2.52307 131.295C2.53047 131.127 2.53504 130.996 2.53782 130.896C2.39008 129.36 2.59923 128.158 2.65216 127.854C2.65514 127.837 2.65763 127.822 2.65952 127.811C2.7842 127.066 2.96191 126.373 3.1103 125.843C3.41531 124.754 3.83425 123.525 4.27258 122.318C5.16487 119.86 6.39265 116.8 7.68145 113.703C12.142 102.984 18.8869 93.5496 26.9965 85.6592L27.8381 84.8403C32.9012 79.914 38.5851 75.6692 44.7461 72.213C48.0911 70.3365 51.5572 68.7035 55.1171 67.3228C52.8499 65.221 50.7253 62.9684 48.7582 60.5798L48.5766 60.3592C45.9922 57.2211 43.7035 53.8507 41.7397 50.2913C37.4651 42.5436 34.793 34.0151 33.8825 25.2135L33.5 21.5159V18.8004ZM80.7728 61.8956C83.9066 61.8401 87.0406 62.1591 90.1076 62.8492L105.638 66.3436L106.703 66.6871C106.292 65.8364 105.881 64.9799 105.48 64.1398C103.957 60.9433 102.157 57.0947 101.513 55.1623C101.276 54.4498 100.488 52.3897 99.3866 49.5996C97.1926 44.0416 93.7651 38.9072 89.4381 34.5802C87.268 32.4101 84.8615 30.4506 82.3042 28.7752C77.0333 25.3218 71.0918 23.0219 64.8695 22.0263L53.5 20.2072V20.4841L53.7763 23.1555C54.4108 29.2885 56.2727 35.2311 59.2512 40.6297C60.6196 43.11 62.2144 45.4584 64.0152 47.6451L64.1968 47.8656C66.1432 50.229 68.3065 52.405 70.6586 54.3651L75.0195 57.9992L80.7728 61.8956ZM2.54181 130.664C2.54181 130.665 2.54182 130.666 2.54182 130.667ZM237.5 159.064C237.55 158.854 237.552 158.888 237.497 159.079C237.498 159.074 237.499 159.069 237.5 159.064ZM85.7174 82.3614C83.5738 81.8791 81.3638 81.7654 79.1821 82.0251L77.2563 82.2544C69.2687 83.2053 61.5466 85.7203 54.5311 89.6559C49.8867 92.2612 45.602 95.4612 41.7852 99.1748L40.9436 99.9937C34.5572 106.207 29.4563 113.433 26.1466 121.387C24.896 124.392 23.8066 127.119 23.0717 129.144C22.8392 129.784 22.6654 130.291 22.5418 130.673C22.5418 131.166 22.5253 131.686 22.5037 132.175C22.4558 133.262 22.3634 134.627 22.2458 136.135C22.0088 139.174 21.6431 143.127 21.2307 147.318C19.9551 160.284 21.2789 173.313 25.3119 185.556L28.8387 196.263C31.0268 202.905 33.9817 209.27 37.6435 215.228L53.629 241.239C58.0876 248.493 63.3577 254.957 69.5492 260.187C71.3878 261.74 73.0132 263.064 74.2472 264H77.9174C84.8104 264 91.6798 263.173 98.3755 261.536L106.246 259.612C109.268 258.873 112.368 258.5 115.479 258.5C118.183 258.5 120.88 258.782 123.525 259.342L146.429 264.187L151.646 265.135C156.651 266.045 161.817 265.242 166.31 262.856C169.054 261.398 171.468 259.391 173.402 256.959L186.272 240.78L199.004 219.682C201.659 215.281 203.933 210.66 205.8 205.871L209.516 196.339C212.299 189.2 214.156 181.687 215.134 173.987C215.709 169.458 216.324 164.828 216.867 161.17C217.137 159.352 217.401 157.693 217.644 156.375C217.763 155.725 217.895 155.06 218.038 154.455C218.041 154.443 218.045 154.428 218.049 154.411C218.059 154.366 218.073 154.305 218.092 154.229C218.047 153.437 217.945 152.282 217.781 150.776C217.429 147.53 216.851 143.22 216.193 138.681C214.817 129.168 211.223 120.027 205.836 111.829L202.554 106.835C196.893 98.2196 188.738 91.5372 179.178 87.6798C173.155 85.2493 166.72 84 160.225 84H155.643C149.124 84 142.634 84.8584 136.34 86.553L118.244 91.4249L100.362 85.6564L85.7174 82.3614ZM75.6193 264.982C75.6185 264.981 75.6176 264.981 75.6167 264.98C75.6395 264.993 75.6411 264.995 75.6193 264.982Z" fill="black"/>
</svg>
