<svg width="234" height="277" viewBox="0 0 234 277" fill="none" xmlns="http://www.w3.org/2000/svg">
<path fill-rule="evenodd" clip-rule="evenodd" d="M88 20C88 8.95431 96.9543 0 108 0H191C202.046 0 211 8.9543 211 20V56.5H88V20ZM191 20H108V36.5H191V20Z" fill="black"/>
<path fill-rule="evenodd" clip-rule="evenodd" d="M181.018 47.1049L200.982 45.895L201.811 59.5797L203.325 60.0249C205.887 60.7785 208.377 61.7583 210.766 62.9526L212.633 63.886C217.498 66.3188 221.749 69.8228 225.066 74.1346C226.319 75.7639 227.431 77.4976 228.388 79.3167L230.02 82.4179C232.306 86.76 233.5 91.5931 233.5 96.5V223.079C233.5 224.418 233.419 226.003 233.107 227.705C232.156 232.9 230.204 238.573 227.342 242.768C225.731 245.131 223.749 246.688 222.603 247.547L221.104 248.672C216.124 252.407 210.104 254.501 203.88 254.662L152.259 255.997L151.741 236.003L203.363 234.668C205.438 234.615 207.444 233.917 209.104 232.672L210.603 231.547C210.758 231.431 210.87 231.344 210.954 231.275C210.962 231.269 210.969 231.263 210.976 231.257C211.777 229.957 212.847 227.309 213.435 224.101C213.464 223.941 213.5 223.632 213.5 223.079V96.5C213.5 94.8389 213.096 93.2028 212.322 91.7328L210.69 88.6316C210.264 87.8233 209.77 87.0528 209.214 86.3288C207.74 84.4127 205.851 82.8556 203.688 81.7745L201.822 80.8412C200.493 80.1766 199.107 79.6315 197.682 79.2122L195.923 78.6951C191.107 77.2785 187 74.1025 184.417 69.7977L182.166 66.047L181.018 47.1049Z" fill="black"/>
<path fill-rule="evenodd" clip-rule="evenodd" d="M79.9416 127.5L137.964 186H168.5V127.5H79.9416ZM156.314 206H168.5C179.546 206 188.5 197.046 188.5 186V127.5C188.5 116.454 179.546 107.5 168.5 107.5H73V121.158C56.7332 108.872 33.8681 108.839 17.4729 121.837C-3.58938 138.535 -5.60959 169.776 13.1267 189.047L84.6291 262.593C101.625 280.074 129.322 281.219 147.702 265.199C165.14 250.001 168.213 224.707 156.314 206ZM63.6998 139.525C54.5909 130.342 40.034 129.473 29.8978 137.509C18.1158 146.85 16.9858 164.326 27.4666 175.106L98.969 248.651C108.56 258.516 124.189 259.162 134.561 250.122C145.841 240.291 146.469 222.976 135.933 212.353L63.6998 139.525Z" fill="black"/>
<path fill-rule="evenodd" clip-rule="evenodd" d="M116.5 48.5V55.7761C116.5 61.0061 114.804 66.0951 111.666 70.2791C109.789 72.7807 107.446 74.8944 104.764 76.5032L96.8918 81.2268C93.3897 83.328 90.398 86.1807 88.1325 89.5788C85.1119 94.1099 83.4999 99.4337 83.4999 104.879V135.5H63.4999V104.879C63.4999 95.4852 66.2806 86.3012 71.4915 78.4848C75.3996 72.6228 80.5606 67.7017 86.6018 64.077L94.4745 59.3533C94.9373 59.0757 95.3418 58.7109 95.6656 58.2791C96.2072 57.557 96.4999 56.6787 96.4999 55.7761V48.5H116.5ZM117.178 178.963L68.6779 228.963L54.322 215.037L102.822 165.037L117.178 178.963Z" fill="black"/>
</svg>
