<svg width="16" height="25" viewBox="0 0 16 25" fill="none" xmlns="http://www.w3.org/2000/svg">
<path fill-rule="evenodd" clip-rule="evenodd" d="M7.41187 2.21818C6.66625 2.21818 5.92829 2.3511 5.24214 2.60898L4.48623 2.89308C4.02668 3.0658 3.63111 3.34888 3.34439 3.71021C3.22272 3.86353 3.12213 4.0291 3.04474 4.20343L2.90927 4.50855C2.64547 5.10271 2.51006 5.73532 2.51006 6.37358V8.13494H0V6.37358C0 5.45806 0.194229 4.55064 0.572623 3.69837L0.708089 3.39325C0.858202 3.05514 1.0533 2.73402 1.28927 2.43665C1.84536 1.73586 2.61257 1.18682 3.50387 0.851837L4.25978 0.567737C5.25658 0.193097 6.32866 0 7.41187 0H9.09372C11.3483 0 13.4479 1.01408 14.6653 2.69105C15.0456 3.21501 15.3289 3.78927 15.5045 4.39216L15.7592 5.26721C15.9191 5.81629 16 6.38099 16 6.94795V7.33242C16 8.66949 15.467 9.96383 14.4947 10.9882C14.1864 11.313 13.838 11.6063 13.456 11.8627L11.5802 13.1215L10.1447 14.001C9.77501 14.2276 9.47982 14.5366 9.28919 14.8967C9.13121 15.1951 9.04933 15.5206 9.04933 15.85V19.0394H6.53927V15.85C6.53927 15.1957 6.70188 14.5494 7.01561 13.9568C7.39417 13.2416 7.98039 12.6279 8.7146 12.1781L10.1055 11.326L11.938 10.0961C12.171 9.93974 12.3835 9.76081 12.5716 9.56268C13.1648 8.93774 13.4899 8.14811 13.4899 7.33242V6.94795C13.4899 6.56743 13.4356 6.18844 13.3284 5.81993L13.0736 4.94488C12.9646 4.5706 12.7887 4.2141 12.5526 3.88881C11.7968 2.84773 10.4934 2.21818 9.09372 2.21818H7.41187Z" fill="black"/>
<path d="M10.0037 22.6747C10.0037 23.6276 9.1296 24.4 8.05139 24.4C6.97318 24.4 6.09912 23.6276 6.09912 22.6747C6.09912 21.7219 6.97318 20.9495 8.05139 20.9495C9.1296 20.9495 10.0037 21.7219 10.0037 22.6747Z" fill="black"/>
</svg>
