<svg width="245" height="293" viewBox="0 0 245 293" fill="none" xmlns="http://www.w3.org/2000/svg">
<path fill-rule="evenodd" clip-rule="evenodd" d="M0.5 123.5C0.5 113.835 8.33502 106 18 106H219.5C233.307 106 244.5 117.193 244.5 131V276.5C244.5 285.613 237.113 293 228 293H29.8625C20.045 293 10.8772 288.093 5.43142 279.925C2.21589 275.102 0.5 269.434 0.5 263.638V123.5ZM20.5 126V263.638C20.5 265.486 21.0471 267.293 22.0724 268.831C23.8088 271.436 26.7321 273 29.8625 273H224.5V131C224.5 128.239 222.261 126 219.5 126H20.5Z" fill="black"/>
<path fill-rule="evenodd" clip-rule="evenodd" d="M164.5 278.5V118.5H184.5V250.294L199.754 221.481L236.152 272.708L219.848 284.292L202.246 259.519L191.838 279.179L184.5 275.294V278.5H164.5Z" fill="black"/>
<path fill-rule="evenodd" clip-rule="evenodd" d="M48.9821 66.5L47.7664 73.1863L46.8667 76.5601C45.6245 81.2187 43.1751 85.4671 39.7658 88.8763C37.4799 91.1622 34.8076 93.0256 31.8724 94.3803L31.5375 94.5349C30.5806 94.9765 29.7253 95.6111 29.0251 96.3987C28.5788 96.9008 28.2006 97.4594 27.9002 98.0603L27.867 98.1266C27.2968 99.267 27 100.524 27 101.799V111H7V101.799C7 97.4195 8.01974 93.0998 9.97848 89.1824L10.0117 89.116C11.0973 86.9447 12.4641 84.9258 14.0769 83.1115C16.6072 80.2649 19.6983 77.9717 23.1563 76.3757L23.4912 76.2211C24.2842 75.8551 25.0061 75.3517 25.6237 74.7342C26.5447 73.8132 27.2064 72.6654 27.542 71.4069L28.2336 68.8137L30.0192 58.9929C30.3918 52.0307 36.1553 46.5 43.2105 46.5H69.7882C73.605 46.5 77.3294 47.674 80.4562 49.8628C84.317 52.5653 87.0082 56.6325 87.9861 61.2426L90.144 71.4155C90.3369 72.3249 90.6794 73.1959 91.1577 73.993L91.3338 74.2866C92.0866 75.5411 93.1996 76.5399 94.5279 77.153C96.2727 77.9583 97.9276 78.9457 99.465 80.0987L99.7824 80.3368C104.063 83.5472 107.336 87.9151 109.214 92.9251C110.395 96.0738 111 99.4092 111 102.772V107H91V102.772C91 101.807 90.8265 100.851 90.4878 99.9476C89.9489 98.5105 89.0102 97.2577 87.7824 96.3368L87.465 96.0987C87.0545 95.7909 86.6126 95.5272 86.1468 95.3122C81.1717 93.016 77.0031 89.2751 74.184 84.5765L74.0079 84.2829C72.3903 81.587 71.2317 78.6412 70.5793 75.5656L68.6563 66.5H48.9821Z" fill="black"/>
<path fill-rule="evenodd" clip-rule="evenodd" d="M54 39V49.8108H34V35.2353C34 32.7039 34.5919 30.2076 35.7285 27.9457L36.0751 27.256C38.6185 22.1945 43.7988 19 49.4634 19H65.5402C66.6498 19 67.7566 19.1122 68.8436 19.3349C76.5017 20.9037 82 27.6426 82 35.4597V51H62V39H54Z" fill="black"/>
<path fill-rule="evenodd" clip-rule="evenodd" d="M203.764 20C200.331 20 196.973 21.0076 194.107 22.898L187.043 27.5572C182.359 30.6468 178.288 34.5691 175.028 39.1247C179.203 41.5239 183.217 44.1949 187.044 47.121L189.973 49.3613L196.269 55.2632C198.501 57.3565 200.345 59.8293 201.714 62.5667C204.579 68.297 205.216 74.8865 203.501 81.0594L203.236 82.0127C202.615 84.2478 201.719 86.3971 200.568 88.4112L199.477 90.3211C197.268 94.1865 193.898 97.2581 189.845 99.1003C187.091 100.352 184.101 101 181.075 101H175C170.545 101 166.123 100.234 161.928 98.7357L159.196 97.7599L150.681 93.7864L146.963 91.4202L135.016 116.325L116.984 107.675L146.778 45.5605L157.361 29.5269C162.258 22.1067 168.61 15.7569 176.031 10.8618L183.095 6.20255C189.229 2.15664 196.416 0 203.764 0C214.41 0 224.57 4.56885 231.669 12.429C236.725 18.0261 240.036 25.0588 241.086 32.5638L242.257 40.9228C243.154 47.3349 243.094 53.8448 242.076 60.2391L241.117 66.2688C240.205 72.0017 238.824 77.6502 236.989 83.1573L229.882 104.478L225.255 115.786L206.745 108.214L211.118 97.5218L218.015 76.8327C219.505 72.3633 220.625 67.7792 221.365 63.1265L222.325 57.0968C223.031 52.6607 223.073 48.1442 222.45 43.6957L221.28 35.3368C220.788 31.8282 219.226 28.4905 216.827 25.8347C213.483 22.1328 208.699 20 203.764 20ZM155.675 73.258L160.319 76.2137L166.804 79.2401L168.655 79.9009C170.691 80.6282 172.838 81 175 81H181.075C181.246 81 181.414 80.9635 181.569 80.893C181.798 80.7892 181.988 80.6161 182.112 80.3984L183.203 78.4884C183.532 77.9128 183.788 77.2986 183.966 76.6598L184.231 75.7066C184.62 74.3061 184.475 72.8111 183.825 71.511C183.515 70.8899 183.096 70.3289 182.59 69.854L177.027 64.6387L174.895 63.0081C171.445 60.3699 167.808 57.9849 164.014 55.8719L155.675 73.258Z" fill="black"/>
</svg>
