<svg width="252" height="272" viewBox="0 0 252 272" fill="none" xmlns="http://www.w3.org/2000/svg">
<path fill-rule="evenodd" clip-rule="evenodd" d="M130.753 76.8295C126.819 75.7056 122.618 75.9719 118.858 77.5834C116.778 78.4748 114.887 79.755 113.287 81.3553L102.384 92.2584L90.3919 106.582C86.9641 110.676 83.9075 115.068 81.2582 119.704L73.528 133.232L62.1807 150.499L49.4819 175.897L38.0374 199.781L38.0182 199.821L27.3389 222.367C25.8375 225.536 24.7407 228.882 24.0743 232.325L20.2662 252H24.695C26.1132 252 27.5151 251.698 28.8076 251.114L40.1525 245.991L49.9729 240.94C54.2147 238.759 58.1801 236.078 61.7845 232.954C68.3459 227.267 75.7916 222.69 83.8278 219.402L85.4337 218.745C91.1177 216.42 96.4726 213.361 101.362 209.645L117.926 197.056L117.949 197.038L135.093 183.929L160.358 166.243L160.453 166.18C165.109 163.075 175.013 156.518 179.511 153.736C179.585 153.581 179.67 153.398 179.764 153.184C180.415 151.694 181.094 149.659 181.692 147.534C182.249 145.553 182.5 143.272 182.5 140.612C182.5 134.145 180.764 127.797 177.474 122.229L177.181 121.733L176.355 120.028C171.974 110.993 166.112 102.754 159.011 95.6534L156.25 92.8918L144.852 83.394C141.799 80.8493 138.247 78.9708 134.425 77.8788L130.753 76.8295ZM110.98 59.2005C118.967 55.7772 127.891 55.2116 136.247 57.599L139.919 58.6483C146.421 60.5057 152.462 63.7011 157.656 68.0296L169.75 78.1082L173.153 81.5113C181.832 90.1897 188.997 100.259 194.351 111.303L194.822 112.273C199.849 120.87 202.5 130.651 202.5 140.612C202.5 144.452 202.147 148.673 200.945 152.948C200.227 155.499 199.261 158.515 198.089 161.195C197.507 162.527 196.769 164.021 195.85 165.414C195.061 166.61 193.507 168.728 190.961 170.182C188.56 171.554 177.37 178.939 171.641 182.758L146.907 200.072L130.063 212.953L113.464 225.568C107.184 230.34 100.306 234.27 93.0064 237.256L91.4004 237.913C85.3788 240.377 79.7997 243.807 74.8832 248.068C70.0728 252.237 64.7807 255.815 59.1199 258.726L48.8475 264.009L37.0393 269.342C33.1598 271.094 28.9518 272 24.695 272H19.9973C14.2236 272 8.73813 269.477 4.98064 265.093C1.05355 260.512 -0.567109 254.388 0.579545 248.464L4.43868 228.525C5.42374 223.435 7.04493 218.49 9.2641 213.805L19.9722 191.199L31.5182 167.103L44.8193 140.501L56.472 122.768L63.8934 109.781C67.1314 104.115 70.8672 98.7474 75.0568 93.7433L87.6163 78.7416L99.1448 67.2132C102.544 63.8137 106.561 61.0942 110.98 59.2005Z" fill="black"/>
<path fill-rule="evenodd" clip-rule="evenodd" d="M83.4584 103.469L91.2986 109.286C97.3716 113.792 102.538 119.405 106.526 125.83L110.496 132.226L93.5035 142.774L89.5334 136.377C86.8747 132.094 83.4303 128.352 79.3816 125.348L71.5414 119.531L83.4584 103.469ZM147.868 151.157L135 134L151 122L163.868 139.157C165.003 140.671 166.245 142.103 167.584 143.442L184.071 159.929L169.929 174.071L153.441 157.584C151.434 155.576 149.571 153.429 147.868 151.157ZM77.0919 183.214L73.5142 175.888L91.4856 167.112L95.0633 174.437C98.6676 181.818 104.456 187.91 111.643 191.885L121.34 197.25L111.659 214.75L101.962 209.386C91.1818 203.422 82.4984 194.285 77.0919 183.214ZM40.3123 184.863L41.0782 185.41C48.7571 190.895 55.034 198.113 59.399 206.48L59.8657 207.374L42.134 216.626L41.6673 215.731C38.7573 210.154 34.5727 205.341 29.4535 201.684L28.6875 201.137L40.3123 184.863Z" fill="black"/>
<path fill-rule="evenodd" clip-rule="evenodd" d="M163.652 30.9713L160.311 49.7006C159.345 55.1158 161.105 60.6596 165.018 64.5256L193.235 92.4046C194.785 93.9362 197.029 94.535 199.136 93.9796C201.312 93.4059 203.553 93.1154 205.804 93.1154H210.867C213.147 93.1154 215.423 92.9204 217.67 92.5326L217.927 92.4883L216.428 91.9616H215.818C206.467 91.9616 200.572 81.8992 205.143 73.7422C206.179 71.8938 207.677 70.346 209.491 69.2504L214.56 66.1883C215.501 65.6195 216.376 64.9465 217.167 64.182L218.267 63.1184L218.077 63.209L211.848 65.5488C203.073 68.8441 193.71 62.3585 193.71 52.986C193.71 50.8403 194.224 48.7259 195.21 46.8201L198.503 40.4556C199.633 38.2698 200.96 36.174 202.44 34.224C203.801 32.4302 204.909 30.4383 205.713 28.3474L203.066 30.0164L192.741 38.3326L185.564 48.9029C179.295 58.1364 164.86 53.6991 164.86 42.5385V40.803C164.86 37.8912 164.542 34.988 163.912 32.1452L163.652 30.9713ZM146.576 12.8058C148.578 1.58258 161.628 -3.6831 170.859 3.00802C172.573 4.25073 174.014 5.83249 175.091 7.65513L177.894 12.3957C179.572 15.2346 180.908 18.2581 181.876 21.4025L191.421 13.7145L202.597 6.66952C203.85 5.88027 205.201 5.26143 206.617 4.82935C217.32 1.5626 228.135 9.56912 228.135 20.7594V20.8885C228.135 22.4961 227.903 24.0954 227.447 25.6371L225.49 32.2589C224.774 34.6805 223.846 37.0358 222.725 39.2922C227.655 37.6886 232.82 36.8654 238.031 36.8654C248.298 36.8654 254.842 47.8329 249.964 56.8681L247.336 61.7376C246.513 63.2612 245.461 64.6491 244.216 65.8524L232.853 76.835C234.791 77.757 236.669 78.803 238.475 79.9671L243.096 82.9443C243.879 83.4492 244.611 84.0297 245.282 84.6775C253.435 92.5576 249.571 106.341 238.51 108.835L231.029 110.523L221.072 112.241C217.701 112.823 214.287 113.115 210.867 113.115H205.804C205.274 113.115 204.746 113.184 204.234 113.319C195.287 115.677 185.76 113.135 179.178 106.632L150.961 78.7527C142.366 70.2606 138.5 58.0833 140.621 46.1885L146.576 12.8058Z" fill="black"/>
</svg>
