<svg width="211" height="292" viewBox="0 0 211 292" fill="none" xmlns="http://www.w3.org/2000/svg">
<path fill-rule="evenodd" clip-rule="evenodd" d="M90.8769 4.97967C98.6322 -0.449086 108.874 -0.743269 116.928 4.23138L118.41 5.1466C119.833 6.02581 121.64 5.98776 123.026 5.04939C131.131 -0.441702 141.744 -0.51946 149.93 4.85226L150.112 4.9716C151.616 5.95895 153.56 5.97258 155.078 5.00644L155.315 4.85547C163.727 -0.497478 174.515 -0.342765 182.769 5.2492L185.428 7.05028C197.302 2.23338 210.5 10.9537 210.5 23.9805V270.301C210.5 283.756 196.066 291.933 184.667 285.644L182.478 287.197C174.467 292.882 163.78 293.038 155.606 287.589L154.838 287.077C153.221 285.999 151.128 285.944 149.457 286.937L149.253 287.058C141.359 291.745 131.519 291.676 123.691 286.878C122.135 285.924 120.169 285.948 118.637 286.94L117.125 287.918C109.009 293.17 98.4932 292.862 90.6981 287.146C89.5693 286.318 88.0405 286.295 86.8871 287.088L86.5992 287.286C78.3762 292.939 67.4986 292.858 59.3608 287.083L59.1847 286.958C57.8653 286.022 56.1181 285.95 54.7269 286.776L54.5399 286.887C46.3497 291.75 36.0797 291.409 28.2306 286.013L25.4958 284.132C14.2897 290.36 0 282.335 0 269.033V21.8302C0 8.54185 14.2 0.42104 25.5067 6.5346L28.0771 4.84775C36.2266 -0.500363 46.7734 -0.500359 54.9229 4.84775L55.1605 5.00368C56.5238 5.89837 58.2914 5.88542 59.6415 4.97084C67.6772 -0.472685 78.1981 -0.549769 86.3127 4.77543L86.7188 5.04199C87.987 5.87419 89.6342 5.84951 90.8769 4.97967ZM106.418 21.2473C105.159 20.4697 103.558 20.5157 102.346 21.3643C94.3966 26.929 83.8584 27.0869 75.7457 21.7629L75.3395 21.4964C73.9762 20.6017 72.2086 20.6146 70.8585 21.5292C62.8228 26.9727 52.3019 27.0498 44.1873 21.7246L43.9497 21.5687C42.4624 20.5927 40.5376 20.5927 39.0503 21.5687L35.0761 24.1768C30.5452 27.1501 24.9741 27.7881 20 26.1026V37H190.5V26.5168C185.288 28.0844 179.591 27.2531 175.008 24.1488L171.552 21.8076C169.899 20.6874 167.738 20.6564 166.053 21.7287L165.815 21.8797C157.66 27.0694 147.22 26.9961 139.138 21.6926L138.957 21.5732C137.522 20.632 135.663 20.6456 134.243 21.6078C126.337 26.9632 116.024 27.1804 107.9 22.1626L106.418 21.2473ZM190.5 57H20V236.394L190.5 234.589V57ZM190.5 254.591L20 256.395V264.509C25.0624 262.78 30.755 263.478 35.3182 266.615L39.5612 269.532C40.9837 270.51 42.8449 270.572 44.3292 269.69L44.5161 269.579C52.7061 264.717 62.9921 265.135 70.7596 270.648L70.9357 270.773C72.2302 271.691 73.9606 271.704 75.2686 270.805L75.5565 270.607C83.7189 264.995 94.5376 265.16 102.525 271.018C103.627 271.826 105.113 271.869 106.26 271.127L107.772 270.149C115.767 264.975 126.023 264.85 134.143 269.826C135.643 270.746 137.529 270.759 139.042 269.861L139.246 269.739C147.535 264.818 157.911 265.089 165.932 270.436L166.7 270.948C167.979 271.801 169.65 271.776 170.903 270.887L174.458 268.365C179.198 265 185.204 264.267 190.5 266.179V254.591ZM69.3175 94.5C67.5568 94.5 65.8161 94.8736 64.2104 95.5962C62.1754 96.512 60.424 97.9581 59.1397 99.7831L58.2712 101.017C56.1425 104.042 55 107.651 55 111.35V183.531C55 186.507 55.8486 189.422 57.4463 191.932L57.7292 192.377C58.745 193.973 60.0917 195.333 61.6781 196.364C63.8229 197.758 66.3259 198.5 68.8839 198.5H143.751C146.701 198.5 149.53 197.328 151.615 195.242C152.765 194.093 153.648 192.706 154.203 191.179L154.832 189.451C155.605 187.326 156 185.081 156 182.819V108.589C156 107.05 155.731 105.521 155.205 104.074C154.242 101.428 152.46 99.1583 150.117 97.5963L149.432 97.1401C146.85 95.4186 143.816 94.5 140.713 94.5H69.3175ZM56.0032 77.3578C60.1891 75.4741 64.7272 74.5 69.3175 74.5H140.713C147.765 74.5 154.659 76.5874 160.526 80.4991L161.211 80.9553C167.1 84.8817 171.581 90.5871 174 97.2394C175.323 100.877 176 104.718 176 108.589V182.819C176 187.412 175.197 191.97 173.627 196.286L172.999 198.014C171.445 202.288 168.973 206.169 165.758 209.385C159.921 215.221 152.005 218.5 143.751 218.5H68.8839C62.4566 218.5 56.1673 216.636 50.7784 213.133C46.7921 210.542 43.4084 207.125 40.8559 203.114L40.5731 202.67C36.9333 196.95 35 190.311 35 183.531V111.35C35 103.531 37.4151 95.9022 41.9151 89.5075L42.7836 88.2732C46.1318 83.5153 50.6977 79.7452 56.0032 77.3578Z" fill="black"/>
<path fill-rule="evenodd" clip-rule="evenodd" d="M71.0905 106.056C79.4098 102.173 89.3174 104.948 94.4099 112.587L94.968 113.424C97.5654 117.32 98.1768 122.212 96.6184 126.627L95.7588 129.063C93.8554 134.456 89.4777 138.607 83.9911 140.22C77.4725 142.138 70.4309 140.178 65.8395 135.169L65.7417 135.063C62.6919 131.735 61 127.386 61 122.873V122.694C61 118.213 62.6265 113.884 65.5773 110.511L66.3788 109.595C67.6864 108.101 69.2911 106.896 71.0905 106.056ZM79.2994 124.269C79.3837 124.247 79.4669 124.217 79.5482 124.179C79.8627 124.033 80.1624 123.858 80.4437 123.658C80.4727 123.637 80.5015 123.616 80.53 123.595C80.6418 123.512 80.7506 123.426 80.8561 123.335C80.9248 123.189 80.97 123.033 80.9893 122.873C80.9931 122.841 80.9959 122.809 80.9977 122.777C80.9971 122.764 80.9963 122.752 80.9955 122.739C80.9944 122.724 80.9932 122.709 80.9918 122.694C80.9801 122.566 80.9561 122.441 80.9202 122.319C80.8616 122.12 80.7714 121.931 80.6527 121.759C80.6291 121.725 80.6045 121.691 80.5787 121.658C80.5633 121.639 80.5475 121.62 80.5313 121.601C80.5149 121.584 80.4982 121.567 80.4813 121.551C80.1765 121.26 79.7991 121.067 79.3974 120.987C79.0553 120.918 78.6955 120.931 78.3478 121.033C78.2693 121.056 78.1926 121.083 78.118 121.115C78.025 121.154 77.9354 121.199 77.8495 121.25C77.7121 121.331 77.5843 121.427 77.4684 121.535C77.4582 121.906 77.4883 122.276 77.5578 122.639C77.5613 122.657 77.5648 122.676 77.5685 122.694C77.5806 122.754 77.5938 122.813 77.6081 122.873C77.6696 123.129 77.7509 123.381 77.8519 123.626C77.8849 123.706 77.9201 123.786 77.9574 123.865C77.9701 123.892 77.9831 123.919 77.9963 123.945C78.0111 123.959 78.026 123.972 78.0413 123.984C78.2256 124.138 78.4444 124.24 78.6754 124.286C78.879 124.326 79.0921 124.322 79.2994 124.269Z" fill="black"/>
<path fill-rule="evenodd" clip-rule="evenodd" d="M71.0905 155.056C79.4098 151.173 89.3174 153.948 94.4099 161.587L94.968 162.424C97.5654 166.32 98.1768 171.212 96.6184 175.627L95.7588 178.063C93.8554 183.456 89.4777 187.607 83.9911 189.22C77.4725 191.138 70.4309 189.178 65.8395 184.169L65.7417 184.063C62.6919 180.735 61 176.386 61 171.873V171.694C61 167.213 62.6265 162.884 65.5773 159.511L66.3788 158.595C67.6864 157.101 69.2911 155.896 71.0905 155.056ZM79.2994 173.269C79.3837 173.247 79.4669 173.217 79.5482 173.179C79.8627 173.033 80.1624 172.858 80.4437 172.658C80.4727 172.637 80.5015 172.616 80.53 172.595C80.6418 172.512 80.7506 172.426 80.8561 172.335C80.9248 172.189 80.97 172.033 80.9893 171.873C80.9931 171.841 80.9959 171.809 80.9977 171.777C80.9971 171.764 80.9963 171.752 80.9955 171.739C80.9944 171.724 80.9932 171.709 80.9918 171.694C80.9801 171.566 80.9561 171.441 80.9202 171.319C80.8616 171.12 80.7714 170.931 80.6527 170.759C80.6291 170.725 80.6045 170.691 80.5787 170.658C80.5633 170.639 80.5475 170.62 80.5313 170.601C80.5149 170.584 80.4982 170.567 80.4813 170.551C80.1765 170.26 79.7991 170.067 79.3974 169.987C79.0553 169.918 78.6955 169.931 78.3478 170.033C78.2693 170.056 78.1926 170.083 78.118 170.115C78.025 170.154 77.9354 170.199 77.8495 170.25C77.7121 170.331 77.5843 170.427 77.4684 170.535C77.4582 170.906 77.4883 171.276 77.5578 171.639C77.5613 171.657 77.5648 171.676 77.5685 171.694C77.5806 171.754 77.5938 171.813 77.6081 171.873C77.6696 172.129 77.7509 172.381 77.8519 172.626C77.8849 172.706 77.9201 172.786 77.9574 172.865C77.9701 172.892 77.9831 172.919 77.9963 172.945C78.0111 172.959 78.026 172.972 78.0413 172.984C78.2256 173.138 78.4444 173.24 78.6754 173.286C78.879 173.326 79.0921 173.322 79.2994 173.269Z" fill="black"/>
<path fill-rule="evenodd" clip-rule="evenodd" d="M127.09 106.056C135.41 102.173 145.317 104.948 150.41 112.587L150.968 113.424C153.565 117.32 154.177 122.212 152.618 126.627L151.759 129.063C149.855 134.456 145.478 138.607 139.991 140.22C133.472 142.138 126.431 140.178 121.84 135.169L121.742 135.063C118.692 131.735 117 127.386 117 122.873V122.694C117 118.213 118.626 113.884 121.577 110.511L122.379 109.595C123.686 108.101 125.291 106.896 127.09 106.056ZM135.299 124.269C135.384 124.247 135.467 124.217 135.548 124.179C135.863 124.033 136.162 123.858 136.444 123.658C136.473 123.637 136.501 123.616 136.53 123.595C136.642 123.512 136.751 123.426 136.856 123.335C136.925 123.189 136.97 123.033 136.989 122.873C136.993 122.841 136.996 122.809 136.998 122.777C136.997 122.764 136.996 122.752 136.995 122.739C136.994 122.724 136.993 122.709 136.992 122.694C136.98 122.566 136.956 122.441 136.92 122.319C136.862 122.12 136.771 121.931 136.653 121.759C136.629 121.725 136.604 121.691 136.579 121.658C136.563 121.639 136.548 121.62 136.531 121.601C136.515 121.584 136.498 121.567 136.481 121.551C136.176 121.26 135.799 121.067 135.397 120.987C135.055 120.918 134.696 120.931 134.348 121.033C134.269 121.056 134.193 121.083 134.118 121.115C134.025 121.154 133.935 121.199 133.85 121.25C133.712 121.331 133.584 121.427 133.468 121.535C133.458 121.906 133.488 122.276 133.558 122.639C133.561 122.657 133.565 122.676 133.569 122.694C133.581 122.754 133.594 122.813 133.608 122.873C133.67 123.129 133.751 123.381 133.852 123.626C133.885 123.706 133.92 123.786 133.957 123.865C133.97 123.892 133.983 123.919 133.996 123.945C134.011 123.959 134.026 123.972 134.041 123.984C134.226 124.138 134.444 124.24 134.675 124.286C134.879 124.326 135.092 124.322 135.299 124.269Z" fill="black"/>
<path fill-rule="evenodd" clip-rule="evenodd" d="M127.09 155.056C135.41 151.173 145.317 153.948 150.41 161.587L150.968 162.424C153.565 166.32 154.177 171.212 152.618 175.627L151.759 178.063C149.855 183.456 145.478 187.607 139.991 189.22C133.472 191.138 126.431 189.178 121.84 184.169L121.742 184.063C118.692 180.735 117 176.386 117 171.873V171.694C117 167.213 118.626 162.884 121.577 159.511L122.379 158.595C123.686 157.101 125.291 155.896 127.09 155.056ZM135.299 173.269C135.384 173.247 135.467 173.217 135.548 173.179C135.863 173.033 136.162 172.858 136.444 172.658C136.473 172.637 136.501 172.616 136.53 172.595C136.642 172.512 136.751 172.426 136.856 172.335C136.925 172.189 136.97 172.033 136.989 171.873C136.993 171.841 136.996 171.809 136.998 171.777C136.997 171.764 136.996 171.752 136.995 171.739C136.994 171.724 136.993 171.709 136.992 171.694C136.98 171.566 136.956 171.441 136.92 171.319C136.862 171.12 136.771 170.931 136.653 170.759C136.629 170.725 136.604 170.691 136.579 170.658C136.563 170.639 136.548 170.62 136.531 170.601C136.515 170.584 136.498 170.567 136.481 170.551C136.176 170.26 135.799 170.067 135.397 169.987C135.055 169.918 134.696 169.931 134.348 170.033C134.269 170.056 134.193 170.083 134.118 170.115C134.025 170.154 133.935 170.199 133.85 170.25C133.712 170.331 133.584 170.427 133.468 170.535C133.458 170.906 133.488 171.276 133.558 171.639C133.561 171.657 133.565 171.676 133.569 171.694C133.581 171.754 133.594 171.813 133.608 171.873C133.67 172.129 133.751 172.381 133.852 172.626C133.885 172.706 133.92 172.786 133.957 172.865C133.97 172.892 133.983 172.919 133.996 172.945C134.011 172.959 134.026 172.972 134.041 172.984C134.226 173.138 134.444 173.24 134.675 173.286C134.879 173.326 135.092 173.322 135.299 173.269Z" fill="black"/>
</svg>
