<svg width="250" height="305" viewBox="0 0 250 305" fill="none" xmlns="http://www.w3.org/2000/svg">
<path fill-rule="evenodd" clip-rule="evenodd" d="M167.5 142.194V186.152L147.838 229.728L137.946 245.554C136.944 247.158 135.636 248.549 134.097 249.649L133.879 249.804C128.666 253.528 121.597 253.264 116.675 249.163C115.36 248.067 114.255 246.74 113.416 245.248L104.689 229.732L82.5 186.412V142.554L102.92 158.436L108.573 162.349C113.573 164.738 119.092 166 124.602 166C128.45 166 132.339 165.383 136.024 164.195C140.399 162.783 144.53 160.57 148.098 157.715L167.5 142.194ZM103.5 171L102.5 172.444V173L103.5 171ZM102.5 181.588V181.538C109.471 184.459 117.011 186 124.602 186C130.558 186 136.518 185.05 142.164 183.229C143.973 182.645 145.754 181.972 147.5 181.213V181.848L130.162 220.272L126.032 226.881L122.311 220.268L102.5 181.588Z" fill="black"/>
<path fill-rule="evenodd" clip-rule="evenodd" d="M61.7651 185.265L88.1538 174.269L95.8461 192.731L69.4574 203.726C63.7062 206.122 58.2194 209.11 53.0852 212.639L46.2481 217.34C41.4131 220.664 37.123 224.718 33.5311 229.358L33.3791 229.554C30.3076 233.521 27.7942 237.891 25.9092 242.541C23.5899 248.262 22.2518 254.332 21.951 260.498L20.7802 284.5H229.5V259.119C229.5 253.021 228.635 246.953 226.932 241.097L225.655 236.706C223.63 229.746 219.975 223.368 214.994 218.102C210.53 213.383 205.109 209.672 199.095 207.217L197.807 206.692L197.5 209.155V213.32L197.503 213.321L200.572 214.856C202.461 215.8 204.185 217.043 205.678 218.536C208.833 221.691 210.82 225.825 211.313 230.259L211.533 232.248C211.974 236.208 211.474 240.217 210.074 243.948L209.396 245.758C208.087 249.247 205.861 252.318 202.951 254.645C199.547 257.368 195.37 258.946 191.016 259.153L187.201 259.335C183.375 259.517 179.566 258.713 176.14 257C171.396 254.628 167.48 250.57 165.455 245.36C165.22 244.755 164.98 244.123 164.788 243.575C164.696 243.312 164.577 242.964 164.469 242.6C164.417 242.423 164.335 242.135 164.258 241.79L164.254 241.771C164.209 241.575 164 240.655 164 239.5C164 238.924 164.126 236.711 164.228 234.922L164.239 234.72C164.534 229.522 166.447 224.558 169.687 220.509C171.834 217.825 174.497 215.626 177.5 214.031V207.913L178.501 199.89L155.395 193.655L160.605 174.345L192.704 183.007L206.653 188.7C215.304 192.231 223.102 197.57 229.523 204.358C236.689 211.934 241.946 221.107 244.858 231.12L246.136 235.51C248.367 243.181 249.5 251.13 249.5 259.119V286.034C249.5 288.15 249.136 290.251 248.424 292.244C245.799 299.594 238.838 304.5 231.033 304.5H17.6533C12.7912 304.5 8.16116 302.421 4.93095 298.787C1.9709 295.457 0.434501 291.099 0.651583 286.649L1.97475 259.524C2.38505 251.113 4.21052 242.831 7.37441 235.027C9.94593 228.683 13.3746 222.723 17.5646 217.311L17.7166 217.114C22.575 210.839 28.3777 205.355 34.9176 200.859L41.7546 196.158C48.0297 191.844 54.7358 188.193 61.7651 185.265ZM188.212 231.197L187.872 231.294C186.859 231.583 185.962 232.18 185.304 233.003C184.646 233.826 184.265 234.824 184.207 235.855C184.161 236.661 184.118 237.428 184.082 238.077C184.087 238.09 184.092 238.103 184.097 238.115C184.221 238.433 184.523 238.831 185.084 239.112C185.445 239.292 185.847 239.377 186.25 239.358L190.065 239.176C190.208 239.169 190.345 239.117 190.457 239.028C190.553 238.952 190.626 238.851 190.669 238.736L191.348 236.926C191.643 236.138 191.749 235.292 191.656 234.456L191.456 232.658L189.497 231.679L188.212 231.197Z" fill="black"/>
<path fill-rule="evenodd" clip-rule="evenodd" d="M141.516 50.7347C144.801 48.6596 148.647 47.5 152.638 47.5C158.631 47.5 164.329 50.1075 168.247 54.6438L172.245 59.274C174.428 61.8008 176.226 64.6354 177.582 67.6863L181.832 77.2493C182.16 77.9871 182.426 78.7495 182.629 79.5285C183.914 79.7688 185.182 80.217 186.385 80.8854L188.102 81.8394C189.688 82.7205 191.147 83.9189 192.35 85.4219C193.201 86.4859 194.328 87.9388 195.282 89.2902C195.745 89.9461 196.284 90.7418 196.748 91.538C196.973 91.9249 197.289 92.4965 197.578 93.1667L197.591 93.1982C197.742 93.5455 198.327 94.8936 198.469 96.7072C198.471 96.724 198.474 96.7426 198.478 96.7633C198.521 97.041 198.594 97.461 198.697 98.0171C198.899 99.1164 199.177 100.53 199.465 101.96C200.282 106.007 200.249 110.227 199.284 114.328C198.224 118.834 196.086 123.015 193.055 126.513L191.098 128.771C189.646 130.447 188.032 131.977 186.282 133.339L185.859 133.667C183.448 135.543 181.802 138.233 181.231 141.233C180.84 143.285 180.252 145.295 179.477 147.234L178.758 149.031C176.735 154.089 173.938 158.803 170.469 163.003L165.21 169.369L149.79 156.631L155.049 150.265C157.2 147.661 158.934 144.739 160.188 141.603L160.907 139.807C161.206 139.058 161.433 138.283 161.584 137.491C163.065 129.713 167.33 122.741 173.58 117.88L174.003 117.552C174.723 116.991 175.387 116.362 175.985 115.672L177.941 113.415C178.853 112.362 179.497 111.104 179.816 109.747C180.102 108.53 180.124 107.223 179.86 105.915C179.564 104.445 179.26 102.903 179.028 101.641C179.009 101.541 178.991 101.441 178.973 101.342C172.273 102.807 164.662 98.5838 163.821 90.4533L163.217 84.6094L159.305 75.8091C158.747 74.5533 158.007 73.3865 157.109 72.3464L153.11 67.7162C152.991 67.5789 152.819 67.5 152.638 67.5C152.533 67.5 152.375 67.531 152.197 67.6435C150.704 68.5867 149.003 69.6439 147.529 70.5201C146.798 70.9545 146.059 71.3831 145.397 71.7434L145.367 71.7596C144.937 71.9939 143.825 72.5992 142.662 72.9868C141.824 73.2661 140.923 73.4494 140.532 73.5291L140.519 73.5316C139.955 73.6464 139.299 73.7679 138.638 73.8875C138.108 73.9831 137.572 74.0783 137.02 74.1763C136.094 74.3406 135.124 74.5127 134.071 74.7078C132.434 75.011 130.856 75.3227 129.529 75.6312C128.086 75.9664 127.482 76.1767 127.441 76.1907C127.44 76.1913 127.439 76.1915 127.439 76.1915C124.541 77.4337 121.431 77.2996 120.218 77.244C118.426 77.1617 116.472 76.9149 114.62 76.6215C110.878 76.0288 106.68 75.104 103.249 74.2692C101.792 73.9148 100.406 73.8794 99.1695 74.1112C97.9633 74.3374 96.949 74.7802 96.1556 75.3513C94.5613 76.4989 92.977 77.6879 91.7771 78.6677C91.7547 78.7648 91.7321 78.8626 91.7092 78.9609C91.357 80.4731 90.8811 82.388 90.3665 84.4064C89.4151 88.1383 88.2864 92.3993 87.4476 95.5187C86.7253 103.642 78.6732 108.358 71.6157 106.35C71.7095 107.991 71.8258 109.818 71.9449 111.689C71.9926 112.438 72.0408 113.195 72.0881 113.949C72.1789 115.397 72.9615 116.615 74.0212 117.251C75.319 118.029 76.5389 118.931 77.664 119.944L77.9337 120.187C81.8012 123.667 84.5952 128.179 85.9878 133.193L87.2052 137.575L87.5676 139.206C88.3352 142.66 89.9174 145.88 92.1824 148.598L84.5001 155L92.2397 148.668L94.2668 151.145C95.5096 152.664 96.8943 154.061 98.402 155.318L85.5983 170.682C83.1151 168.613 80.8346 166.312 78.7877 163.81L76.7872 161.365C72.4972 156.205 69.4998 150.096 68.0439 143.545L67.7949 142.425L66.7174 138.545C66.3434 137.199 65.5931 135.987 64.5545 135.053L64.2847 134.81C64.1138 134.656 63.9285 134.519 63.7314 134.401C56.8458 130.269 52.6167 123.001 52.1273 115.201C52.0833 114.499 52.0373 113.777 51.991 113.049C51.8361 110.617 51.6768 108.115 51.5683 106.03C51.498 104.68 51.4424 103.384 51.4258 102.326C51.4178 101.808 51.4167 101.223 51.4406 100.661C51.4408 100.656 51.441 100.648 51.4414 100.637C51.4482 100.409 51.4932 98.8976 52.0132 97.3377C52.5065 95.8578 53.3174 94.5911 53.5682 94.1994C53.5781 94.1837 53.5873 94.1695 53.5954 94.1567C54.0093 93.5079 54.4877 92.8206 54.9509 92.1766C55.8885 90.8728 57.0257 89.3839 58.0739 88.0418C61.1044 84.1611 65.6894 82.4697 70.0948 82.9211C70.4003 81.7492 70.702 80.5812 70.9865 79.4654C71.4894 77.4928 71.9253 75.7347 72.2305 74.4243C72.3849 73.7611 72.4897 73.2819 72.5503 72.9769C72.5511 72.9729 72.5519 72.969 72.5527 72.965C72.8254 70.2862 74.0761 68.4379 74.3668 68.0084C74.3754 67.9957 74.3831 67.9842 74.39 67.974C74.9543 67.1354 75.556 66.4662 75.961 66.04C76.8043 65.1524 77.784 64.2927 78.6397 63.5787C80.4096 62.102 82.5857 60.4766 84.4712 59.1194C87.8455 56.6904 91.6426 55.174 95.4838 54.4538C99.7412 53.6555 104.003 53.8691 107.977 54.8362C111.158 55.61 114.767 56.3956 117.748 56.8677C119.171 57.093 120.262 57.2163 121.003 57.2582C122.383 56.7858 123.828 56.4229 125.003 56.15C126.769 55.7398 128.691 55.364 130.429 55.0422C131.534 54.8376 132.676 54.6348 133.663 54.4594C134.19 54.3659 134.672 54.2802 135.081 54.2063C135.499 54.1308 135.848 54.0664 136.134 54.0115C136.447 53.8354 136.841 53.6069 137.309 53.3286C138.56 52.5849 140.09 51.6357 141.516 50.7347ZM72.6041 72.6775C72.6057 72.6742 72.5994 72.7182 72.5807 72.8194C72.5932 72.7314 72.6026 72.6807 72.6041 72.6775ZM92.5 74C92.5 74.1756 92.4953 74.3468 92.4865 74.5133C92.4951 74.3434 92.5 74.1715 92.5 74ZM178.5 97.5C178.5 97.6206 178.502 97.7417 178.507 97.8621C178.502 97.7456 178.5 97.6248 178.5 97.5Z" fill="black"/>
<path fill-rule="evenodd" clip-rule="evenodd" d="M149.598 23.9037C142.518 21.3567 135.023 20.1582 127.502 20.3701L111.736 20.8142C109.516 20.8767 107.365 21.5995 105.558 22.8902C103.849 24.1112 102.02 25.1563 100.101 26.0095L98.2407 26.8362C93.4302 28.9742 89.2377 32.2928 86.0524 36.484L83.941 39.2621C82.9351 40.5856 81.815 41.8183 80.5934 42.9459C79.0353 44.3842 78.0789 46.3587 77.9162 48.4729L76.8793 61.9533C76.6589 64.8177 76.7275 67.6971 77.0838 70.5478L77.5963 74.6476C78.0879 78.5805 78.858 82.4736 79.9009 86.2975L81.1476 90.8688L61.8524 96.1311L60.6056 91.5599C59.3138 86.8229 58.3597 82.0003 57.7507 77.1283L57.2383 73.0285C56.7155 68.8462 56.6149 64.6218 56.9382 60.4193L57.9752 46.939C58.5251 39.7898 61.7591 33.1133 67.0278 28.2498C67.3891 27.9164 67.7203 27.5518 68.0178 27.1604L70.1292 24.3823C75.3531 17.5088 82.2287 12.0663 90.118 8.55993L91.9779 7.73328C92.6658 7.42755 93.321 7.05305 93.9336 6.61551C98.9762 3.01362 104.978 0.996619 111.173 0.822128L126.938 0.37802C136.963 0.0956394 146.952 1.69425 156.387 5.09109L153 14.4999L156.417 5.10203L158.322 5.79445C165.525 8.41375 172.163 12.382 177.88 17.4867L180.538 19.8603C184.155 23.0898 187.164 26.9414 189.423 31.2325C191.554 35.2815 192.985 39.6616 193.655 44.1878L194.288 48.4582C194.762 51.6572 195 54.8868 195 58.1207V66.1225L193.905 74.8807L192.778 82.2076L191.097 87.8104L190.115 91.2472L170.885 85.7528L171.903 82.1895L173.222 77.7923L174.095 72.119L175 64.8774V58.1207C175 55.8678 174.834 53.6178 174.504 51.3892L173.871 47.1188C173.531 44.823 172.805 42.6012 171.724 40.5474C170.579 38.3708 169.053 36.4172 167.218 34.779L164.559 32.4054C160.738 28.9934 156.301 26.3411 151.487 24.5903L149.613 23.9088C149.608 23.9071 149.603 23.9054 149.598 23.9037Z" fill="black"/>
<path fill-rule="evenodd" clip-rule="evenodd" d="M52.5 223.127V200H72.5V230.069C72.5 236.596 67.1169 241.1 61.403 241.054L55.2932 243.793C53.8683 244.432 52.6861 245.511 51.9206 246.872L51.7076 247.25C51.2505 248.063 50.9285 248.944 50.754 249.86L49.6145 255.843C49.5908 255.967 49.5842 256.094 49.5947 256.22C49.655 256.943 50.2598 257.5 50.9858 257.5H57V277.5H50.9858C39.858 277.5 30.5879 268.97 29.6638 257.881C29.5028 255.949 29.605 254.005 29.9677 252.101L31.1072 246.118C31.687 243.075 32.7572 240.146 34.2761 237.445L34.4891 237.067C37.3543 231.973 41.779 227.933 47.1121 225.543L52.5 223.127Z" fill="black"/>
<path fill-rule="evenodd" clip-rule="evenodd" d="M74.6392 244.439L63.5608 239.691L71.4392 221.309L82.5176 226.057C89.436 229.021 94.5703 235.05 96.3959 242.353C96.7435 243.743 96.9663 245.162 97.0616 246.592L97.929 259.602C98.0129 260.86 97.9505 262.125 97.7431 263.369C96.4321 271.235 89.6264 277 81.6519 277H70.5V257H77.7111L77.1059 247.922C77.0898 247.68 77.052 247.439 76.993 247.203C76.6834 245.965 75.8126 244.942 74.6392 244.439Z" fill="black"/>
</svg>
