<svg width="225" height="294" viewBox="0 0 225 294" fill="none" xmlns="http://www.w3.org/2000/svg">
<path fill-rule="evenodd" clip-rule="evenodd" d="M109 106.248L197.41 141.175L220.662 191.783L200 199.075V257.941L105.836 293.095L99.4082 187.036L0.409424 149.148L109 106.248ZM109 169.293L162.409 148.852L109 127.752L55.5908 148.852L109 169.293ZM184.825 161.688L122.76 185.441L131.071 202.552L186.645 182.58L193.338 180.217L184.825 161.688ZM121.874 227.109L180 206.22V244.059L124.164 264.905L121.874 227.109Z" fill="black"/>
<path fill-rule="evenodd" clip-rule="evenodd" d="M18.6875 144.856L37.3124 152.144L27.6042 176.954L87.7543 197.775L99.7096 175.732L117.29 185.268L97.2457 222.225L35.5 200.851V246.06L111.999 274.632L105.001 293.368L15.5 259.94V193.928L1.39575 189.046L18.6875 144.856Z" fill="black"/>
<path fill-rule="evenodd" clip-rule="evenodd" d="M164.642 0.750366L184.441 35.0503L224.616 41.7093L196.293 70.5473L199.976 109.619L165.078 95.7362L129.636 112.101L132.15 71.4826L107.172 41.4129L145.473 35.0645L164.642 0.750366ZM164.927 41.2497L158.239 53.2213L144.827 55.4444L152.601 64.8032L151.667 79.8993L164.491 73.9782L176.996 78.9529L175.508 63.1671L183.384 55.148L171.846 53.2355L164.927 41.2497Z" fill="black"/>
</svg>
