<svg width="305" height="295" viewBox="0 0 305 295" fill="none" xmlns="http://www.w3.org/2000/svg">
<path fill-rule="evenodd" clip-rule="evenodd" d="M112 261H88V241H112V261Z" fill="black"/>
<path fill-rule="evenodd" clip-rule="evenodd" d="M206 260L144 260L144 240L206 240L206 260Z" fill="black"/>
<path fill-rule="evenodd" clip-rule="evenodd" d="M195.105 22.334C185.727 19.9896 175.935 19.8445 166.492 21.9102C157.764 23.8194 149.544 27.5714 142.384 32.9148L139.944 34.7359C129.238 42.725 120.802 53.3681 115.467 65.6143L102.668 94.9939L84.3322 87.0061L97.1312 57.6265C103.855 42.1913 114.489 28.7768 127.982 18.7073L130.422 16.8862C139.866 9.8387 150.706 4.89025 162.218 2.37218C174.672 -0.352203 187.587 -0.160905 199.956 2.93113L204.272 4.01036C221.181 8.23745 236.622 16.9804 248.946 29.3043C259.675 40.0332 267.713 53.1487 272.403 67.5787L279.01 87.9091L259.99 94.0909L253.382 73.7604C249.668 62.3316 243.302 51.944 234.804 43.4465C225.044 33.6857 212.813 26.7611 199.422 23.4132L195.105 22.334Z" fill="black"/>
<path fill-rule="evenodd" clip-rule="evenodd" d="M94.5 101.5V81.5H305V101.5H94.5Z" fill="black"/>
<path fill-rule="evenodd" clip-rule="evenodd" d="M189.047 2.17944C196.124 6.89759 202.156 13.0205 206.767 20.1679L207.766 21.7161C210.195 25.4816 212.262 29.4688 213.939 33.6243L220.071 48.8212L222.371 48.2864C228.869 46.7752 235.179 44.546 241.185 41.64L246.644 38.9984L255.356 57.0015L249.896 59.6432C242.556 63.195 234.843 65.9195 226.901 67.7666L225.196 68.163L228.399 90.5857L208.601 93.4142L205.389 70.9355L183.532 72.0105L157.555 70.8972L155.455 92.948L135.545 91.0519L137.811 67.2631L110.594 57.4019L117.406 38.598L143.103 47.9084L145.557 42.3124C150.138 31.868 156.316 22.1994 163.868 13.6534L172.507 3.87797L182.202 12.4463L189.047 2.17944ZM182.722 22.5207L178.855 26.8974C172.675 33.8896 167.621 41.8002 163.873 50.3456L163.527 51.1348L183.468 51.9894L199.465 51.2027L195.392 41.1082C194.188 38.1247 192.704 35.2621 190.96 32.5586L189.961 31.0104C187.931 27.864 185.495 25.0106 182.722 22.5207ZM0 42.9999H49.977L61.477 81.9999H94.5V102H67.0739L95.1488 205.5H247.339L286.033 91.7788L304.967 98.2211L261.661 225.5H100.842L106.598 245.194L87.4017 250.806L77.8743 218.212L44.3774 94.7234L35.023 62.9999H0V42.9999ZM206.712 187.451L220.212 122.951L239.788 127.049L226.288 191.549L206.712 187.451ZM122.706 190.021L109.706 127.021L129.294 122.979L142.294 185.979L122.706 190.021ZM166.001 189.345L167.001 124.845L186.999 125.155L185.999 189.655L166.001 189.345ZM213.548 234.912C216.51 233.772 219.73 233.469 222.856 234.037L224.464 234.329C226.607 234.719 228.683 235.411 230.631 236.385L231.179 236.659C233.06 237.6 234.826 238.755 236.442 240.101L237.825 241.254L238.63 241.898C240.505 243.398 242.137 245.178 243.469 247.176C244.459 248.661 245.276 250.255 245.902 251.926L246.028 252.261C246.919 254.637 247.463 257.129 247.644 259.661L247.762 261.312C247.954 264 247.859 266.7 247.478 269.367L247.373 270.102L246.622 274.228C246.3 276.004 245.778 277.738 245.067 279.397C244.074 281.714 242.723 283.86 241.063 285.757L240.859 285.989C238.887 288.243 236.54 290.139 233.922 291.594L233.224 291.982C231.551 292.911 229.764 293.617 227.908 294.081C224.893 294.835 221.751 294.937 218.693 294.381L215.286 293.761L210.498 292.456C209.112 292.077 207.766 291.563 206.481 290.921C205.31 290.335 204.195 289.646 203.147 288.861L202.527 288.395C200.032 286.524 197.839 284.28 196.026 281.742L195.579 281.116L194.985 280.403C192.994 278.013 191.524 275.234 190.669 272.243C190.326 271.043 190.085 269.816 189.947 268.575L189.662 266.008C189.495 264.507 189.534 262.99 189.779 261.5C189.445 258.859 190.055 256.14 191.577 253.857L194.596 249.327C195.349 248.198 196.212 247.146 197.172 246.186L202.379 240.978C205.389 237.969 209.195 235.879 213.35 234.956L213.548 234.912ZM220.007 253.847C219.38 254.065 218.74 254.246 218.091 254.39L217.689 254.48C217.247 254.578 216.842 254.8 216.521 255.121L211.314 260.328C211.286 260.356 211.26 260.388 211.237 260.422L209.879 262.459C209.857 262.653 209.83 262.847 209.798 263.04L209.592 264.275L209.824 266.366C209.839 266.496 209.864 266.623 209.9 266.749C209.989 267.06 210.142 267.35 210.35 267.599L211.421 268.884L212.301 270.117C212.922 270.986 213.673 271.755 214.527 272.395L215.147 272.861C215.235 272.926 215.328 272.983 215.425 273.032C215.533 273.086 215.645 273.129 215.76 273.16L219.714 274.239L222.271 274.703C222.532 274.751 222.8 274.742 223.057 274.678C223.216 274.638 223.368 274.578 223.511 274.499L224.209 274.111C224.813 273.776 225.353 273.339 225.808 272.819L226.011 272.587C226.29 272.268 226.517 271.908 226.684 271.519C226.803 271.24 226.891 270.949 226.945 270.65L227.627 266.898L227.679 266.539C227.858 265.28 227.903 264.005 227.813 262.737L227.695 261.086C227.651 260.469 227.518 259.862 227.301 259.283L227.176 258.949C227.086 258.71 226.969 258.482 226.828 258.27C226.638 257.984 226.404 257.73 226.136 257.515L225.175 256.746L223.638 255.466C223.207 255.106 222.736 254.799 222.235 254.548L221.687 254.274C221.434 254.147 221.164 254.057 220.886 254.007L220.007 253.847ZM122.794 234.672C126.334 233.728 130.044 233.611 133.637 234.329C135.719 234.746 137.737 235.438 139.636 236.388L140.115 236.627C142.039 237.589 143.845 238.77 145.497 240.147L146.825 241.254L148.009 242.201C149.633 243.5 151.046 245.042 152.2 246.772L152.332 246.97C153.693 249.012 154.646 251.299 155.139 253.703L155.428 254.456C157.316 259.366 157.856 264.691 156.991 269.879L156.76 271.268L154.915 277.417L154.188 279.113C153.115 281.618 151.654 283.938 149.859 285.989C147.887 288.243 145.54 290.139 142.922 291.594L142.224 291.982C140.551 292.911 138.764 293.617 136.908 294.081C133.893 294.835 130.751 294.937 127.693 294.381L124.762 293.848L124.711 293.839L116.921 292.464C113.559 291.871 110.79 289.76 109.269 286.911L108.687 286.329C107.527 285.169 106.534 283.853 105.738 282.419L104.637 280.438C101.372 277.425 99.5 273.175 99.5 268.707V264.182C99.5 259.879 100.502 255.636 102.426 251.787C103.598 249.443 105.098 247.276 106.879 245.352L110.566 241.37L110.361 241.106L112.009 239.824C114.948 237.538 118.316 235.866 121.914 234.907L122.794 234.672ZM125.206 254.997L121.554 258.94C121.058 259.476 120.641 260.079 120.314 260.732C119.779 261.803 119.5 262.984 119.5 264.182V266.979C120.384 267.926 121.15 268.979 121.782 270.116L123.061 272.419L124.056 273.414L128.263 274.157L131.271 274.703C131.532 274.751 131.8 274.742 132.057 274.678C132.216 274.638 132.368 274.578 132.511 274.499L133.209 274.111C133.813 273.776 134.353 273.339 134.808 272.819C135.221 272.347 135.558 271.812 135.805 271.235L136.085 270.583L137.24 266.732L137.264 266.591C137.541 264.924 137.368 263.213 136.761 261.636L136.442 260.805C136.079 259.862 135.792 258.892 135.584 257.903L135.559 257.866C135.547 257.848 135.532 257.832 135.515 257.818L134.175 256.746L132.693 255.511C132.226 255.122 131.715 254.788 131.171 254.516L130.692 254.276C130.383 254.122 130.054 254.009 129.714 253.941C129.129 253.824 128.524 253.843 127.948 253.997L127.067 254.231C126.415 254.405 125.789 254.663 125.206 254.997Z" fill="black"/>
</svg>
